<svg xmlns="http://www.w3.org/2000/svg" version="1.1" xmlns:xlink="http://www.w3.org/1999/xlink" width="1500" height="97" viewBox="0 0 1500 97"><svg xml:space="preserve" width="1500" height="97" data-version="2" data-id="lg_3NVgzNnsB1ErDsXvJS" viewBox="0 0 801 97" x="0" y="0"><rect width="100%" height="100%" fill="transparent"></rect><path fill="#fff" d="M166.03 69.23v-46.2h34.92v8.58h-24.29v29.04h25.15v8.58Zm9.84-19.27v-8.31h22.24v8.31Z"></path><rect width="35.78" height="46.2" x="-17.89" y="-23.1" fill="none" rx="0" ry="0" transform="translate(184.42 46.63)"></rect><path fill="#fff" d="M208.74 69.23V20.26h10.29v48.97Z"></path><rect width="10.29" height="48.97" x="-5.14" y="-24.48" fill="none" rx="0" ry="0" transform="translate(214.38 45.24)"></rect><path fill="#fff" d="M227.74 69.23V20.26h10.3v48.97Z"></path><rect width="10.3" height="48.97" x="-5.15" y="-24.48" fill="none" rx="0" ry="0" transform="translate(233.39 45.24)"></rect><path fill="#fff" d="M268.53 69.23V62.3l-.66-1.51V48.38q0-3.3-2.01-5.15-2.01-1.85-6.17-1.85-2.84 0-5.58.89t-4.65 2.41l-3.7-7.19q2.91-2.05 7-3.17t8.31-1.12q8.12 0 12.61 3.83 4.49 3.82 4.49 11.94v20.26Zm-10.82.53q-4.16 0-7.13-1.42-2.97-1.42-4.55-3.86-1.59-2.44-1.59-5.48 0-3.16 1.55-5.54t4.92-3.73q3.37-1.35 8.78-1.35h9.44v6h-8.32q-3.63 0-4.98 1.19-1.36 1.19-1.36 2.97 0 1.98 1.55 3.14 1.56 1.15 4.26 1.15 2.58 0 4.62-1.22 2.05-1.22 2.97-3.6l1.59 4.76q-1.13 3.43-4.1 5.21-2.97 1.78-7.65 1.78"></path><rect width="33.73" height="36.56" x="-16.86" y="-18.28" fill="none" rx="0" ry="0" transform="translate(261.8 51.98)"></rect><path fill="#fff" d="M314.73 69.23V31.75h-14.78v-8.72h40.26v8.72h-14.79v37.48Z"></path><rect width="40.26" height="46.2" x="-20.13" y="-23.1" fill="none" rx="0" ry="0" transform="translate(320.58 46.63)"></rect><path fill="#fff" d="M358.36 69.76q-6.07 0-10.66-2.37-4.59-2.38-7.1-6.51-2.5-4.12-2.5-9.4 0-5.35 2.47-9.47 2.48-4.13 6.77-6.47 4.29-2.34 9.7-2.34 5.21 0 9.4 2.21t6.64 6.33q2.44 4.13 2.44 9.87 0 .6-.07 1.35-.06.76-.13 1.42h-28.84v-6h23.43l-3.96 1.78q0-2.77-1.12-4.82-1.13-2.04-3.11-3.2-1.98-1.15-4.62-1.15t-4.65 1.15q-2.01 1.16-3.13 3.23-1.13 2.08-1.13 4.92v1.59q0 2.9 1.29 5.11 1.29 2.21 3.63 3.37 2.34 1.15 5.51 1.15 2.84 0 4.98-.86 2.15-.85 3.93-2.57l5.48 5.94q-2.44 2.77-6.14 4.26-3.69 1.48-8.51 1.48"></path><rect width="37.42" height="36.56" x="-18.71" y="-18.28" fill="none" rx="0" ry="0" transform="translate(357.31 51.98)"></rect><path fill="#fff" d="M398.68 69.76q-5.74 0-10.23-2.34-4.48-2.34-7.03-6.5-2.54-4.16-2.54-9.44 0-5.35 2.54-9.47 2.55-4.13 7.03-6.47 4.49-2.34 10.23-2.34 5.61 0 9.77 2.34 4.16 2.34 6.14 6.7l-7.99 4.29q-1.38-2.51-3.46-3.7-2.08-1.18-4.52-1.18-2.64 0-4.75 1.18-2.12 1.19-3.34 3.37-1.22 2.18-1.22 5.28t1.22 5.28q1.22 2.18 3.34 3.37 2.11 1.18 4.75 1.18 2.44 0 4.52-1.15 2.08-1.16 3.46-3.73l7.99 4.36q-1.98 4.29-6.14 6.63t-9.77 2.34"></path><rect width="35.71" height="36.56" x="-17.86" y="-18.28" fill="none" rx="0" ry="0" transform="translate(397.24 51.98)"></rect><path fill="#fff" d="M419.41 69.23V20.26h10.29v23.3l-2.31-2.97q1.92-3.56 5.48-5.48 3.57-1.91 8.12-1.91 4.22 0 7.56 1.68 3.33 1.68 5.24 5.15 1.92 3.46 1.92 8.88v20.32h-10.3V50.49q0-4.29-1.88-6.34-1.88-2.04-5.31-2.04-2.44 0-4.39 1.02-1.95 1.02-3.04 3.14-1.09 2.11-1.09 5.41v17.55Z"></path><rect width="36.3" height="48.97" x="-18.15" y="-24.48" fill="none" rx="0" ry="0" transform="translate(438.06 45.24)"></rect><path fill="#fff" d="M497.88 70.03q-5.54 0-10.62-1.49-5.09-1.48-8.19-3.86l3.63-8.05q2.97 2.11 7.03 3.46 4.06 1.36 8.22 1.36 3.17 0 5.11-.63 1.95-.63 2.87-1.75.93-1.12.93-2.57 0-1.85-1.45-2.94-1.46-1.09-3.83-1.78-2.38-.7-5.25-1.32-2.87-.63-5.74-1.55-2.87-.93-5.25-2.38-2.37-1.45-3.86-3.83-1.48-2.37-1.48-6.07 0-3.96 2.14-7.23 2.15-3.26 6.47-5.21 4.32-1.95 10.86-1.95 4.35 0 8.58 1.02 4.22 1.03 7.45 3.07l-3.3 8.12q-3.23-1.85-6.46-2.74-3.24-.89-6.34-.89-3.1 0-5.08.73-1.98.72-2.84 1.88-.86 1.15-.86 2.67 0 1.78 1.45 2.87 1.46 1.09 3.83 1.75 2.38.66 5.25 1.32t5.74 1.52q2.87.86 5.25 2.31 2.37 1.45 3.86 3.83 1.48 2.37 1.48 6 0 3.9-2.17 7.13-2.18 3.24-6.51 5.22-4.32 1.98-10.92 1.98"></path><rect width="38.41" height="47.79" x="-19.2" y="-23.89" fill="none" rx="0" ry="0" transform="translate(498.77 46.63)"></rect><path fill="#fff" d="M540.12 69.76q-5.67 0-10.06-2.37-4.39-2.38-6.93-6.51-2.54-4.12-2.54-9.4 0-5.35 2.54-9.47 2.54-4.13 6.93-6.47t10.06-2.34q5.61 0 10.03 2.34 4.43 2.34 6.93 6.44 2.51 4.09 2.51 9.5 0 5.28-2.51 9.4-2.5 4.13-6.93 6.51-4.42 2.37-10.03 2.37m0-8.45q2.58 0 4.62-1.18 2.05-1.19 3.24-3.4 1.18-2.21 1.18-5.25 0-3.1-1.18-5.28-1.19-2.18-3.24-3.37-2.04-1.18-4.62-1.18-2.57 0-4.62 1.18-2.04 1.19-3.27 3.37-1.22 2.18-1.22 5.28 0 3.04 1.22 5.25 1.23 2.21 3.27 3.4 2.05 1.18 4.62 1.18"></path><rect width="39" height="36.56" x="-19.5" y="-18.28" fill="none" rx="0" ry="0" transform="translate(540.59 51.98)"></rect><path fill="#fff" d="M565.6 69.23V20.26h10.29v48.97Z"></path><rect width="10.29" height="48.97" x="-5.14" y="-24.48" fill="none" rx="0" ry="0" transform="translate(571.25 45.24)"></rect><path fill="#fff" d="M599.59 69.76q-4.42 0-7.89-1.71-3.46-1.72-5.38-5.25-1.91-3.53-1.91-9.01V33.73h10.29v18.54q0 4.42 1.88 6.5 1.89 2.08 5.32 2.08 2.37 0 4.22-1.02 1.85-1.02 2.91-3.17 1.05-2.14 1.05-5.38V33.73h10.3v35.5h-9.77v-9.76l1.78 2.83q-1.78 3.7-5.25 5.58-3.46 1.88-7.55 1.88"></path><rect width="35.97" height="36.03" x="-17.98" y="-18.02" fill="none" rx="0" ry="0" transform="translate(602.9 52.24)"></rect><path fill="#fff" d="M643.61 69.76q-6.27 0-9.77-3.2t-3.5-9.54V25.87h10.3v31.02q0 2.25 1.19 3.47 1.19 1.22 3.23 1.22 2.44 0 4.16-1.32l2.77 7.26q-1.58 1.12-3.79 1.68-2.21.56-4.59.56m-18.74-28.11v-7.92h24.61v7.92Z"></path><rect width="27.12" height="43.89" x="-13.56" y="-21.95" fill="none" rx="0" ry="0" transform="translate(638.93 48.31)"></rect><path fill="#fff" d="M656.94 69.23v-35.5h10.3v35.5Zm5.15-40.45q-2.84 0-4.62-1.65-1.78-1.65-1.78-4.1 0-2.44 1.78-4.09t4.62-1.65q2.84 0 4.62 1.55 1.78 1.55 1.78 4 0 2.57-1.75 4.25-1.75 1.69-4.65 1.69"></path><rect width="12.8" height="51.94" x="-6.4" y="-25.97" fill="none" rx="0" ry="0" transform="translate(662.59 43.76)"></rect><path fill="#fff" d="M692.85 69.76q-5.68 0-10.07-2.37-4.39-2.38-6.93-6.51-2.54-4.12-2.54-9.4 0-5.35 2.54-9.47 2.54-4.13 6.93-6.47t10.07-2.34q5.61 0 10.03 2.34 4.42 2.34 6.93 6.44 2.51 4.09 2.51 9.5 0 5.28-2.51 9.4-2.51 4.13-6.93 6.51-4.42 2.37-10.03 2.37m0-8.45q2.57 0 4.62-1.18 2.04-1.19 3.23-3.4t1.19-5.25q0-3.1-1.19-5.28t-3.23-3.37q-2.05-1.18-4.62-1.18-2.58 0-4.62 1.18-2.05 1.19-3.27 3.37-1.22 2.18-1.22 5.28 0 3.04 1.22 5.25t3.27 3.4q2.04 1.18 4.62 1.18"></path><rect width="39.01" height="36.56" x="-19.5" y="-18.28" fill="none" rx="0" ry="0" transform="translate(693.32 51.98)"></rect><path fill="#fff" d="M718.32 69.23v-35.5h9.84v9.83l-1.85-2.97q1.91-3.56 5.48-5.48 3.56-1.91 8.11-1.91 4.23 0 7.56 1.68 3.33 1.68 5.25 5.15 1.91 3.46 1.91 8.88v20.32h-10.29V50.49q0-4.29-1.89-6.34-1.88-2.04-5.31-2.04-2.44 0-4.39 1.02-1.94 1.02-3.03 3.14-1.09 2.11-1.09 5.41v17.55Z"></path><rect width="36.3" height="36.03" x="-18.15" y="-18.02" fill="none" rx="0" ry="0" transform="translate(736.97 51.72)"></rect><path fill="#fff" d="M775.02 69.76q-4.56 0-8.75-1.09t-6.63-2.74l3.43-7.39q2.44 1.52 5.77 2.48 3.34.95 6.57.95 3.57 0 5.05-.85 1.49-.86 1.49-2.38 0-1.25-1.16-1.88-1.15-.63-3.07-.96-1.91-.33-4.19-.66-2.28-.33-4.59-.89t-4.22-1.68q-1.91-1.12-3.07-3.04-1.15-1.91-1.15-4.95 0-3.36 1.94-5.94 1.95-2.57 5.65-4.06 3.69-1.48 8.84-1.48 3.63 0 7.39.79t6.27 2.31l-3.43 7.33q-2.57-1.52-5.18-2.08t-5.05-.56q-3.43 0-5.02.92-1.58.92-1.58 2.38 0 1.32 1.15 1.98 1.16.66 3.07 1.05 1.92.4 4.19.69 2.28.3 4.59.9 2.31.59 4.19 1.68 1.88 1.09 3.07 2.97 1.19 1.88 1.19 4.92 0 3.3-1.98 5.84t-5.71 3.99q-3.73 1.45-9.07 1.45"></path><rect width="32.14" height="36.56" x="-16.07" y="-18.28" fill="none" rx="0" ry="0" transform="translate(776.21 51.98)"></rect><path fill="#fff" d="M157.417 77.08h-9.622V4.016a3.08 3.08 0 0 0-3.079-3.079H24.06a3.08 3.08 0 0 0-3.079 3.079V77.08h-9.622a3.141 3.141 0 0 0-3.141 3.14v3.174c0 .157.012.311.034.466.802 5.364 5.1 11.345 10.906 12.069.126.015.257.026.383.026l128.743.108h.005c6.709 0 11.583-6.394 12.25-12.317.013-.114.019-.231.019-.35V80.22a3.141 3.141 0 0 0-3.141-3.141M27.139 7.095h114.498v69.983H99.6c-.202 0-.399.025-.588.061h-28.09a3.153 3.153 0 0 0-.603-.06h-43.18zm121.153 82.684L19.775 89.67c-2.226-.398-4.607-3.29-5.232-6.312h53.45c1.07 1.898 3.073 3.176 5.361 3.176H96.56c2.288 0 4.29-1.278 5.362-3.176h52.33c-.491 3.097-3.057 6.42-5.96 6.42m-80.905-60.34a3.173 3.173 0 0 0-4.49 0L49.661 42.674a3.176 3.176 0 0 0 0 4.491l13.236 13.236a3.169 3.169 0 0 0 4.491 0 3.173 3.173 0 0 0 0-4.49l-10.992-10.99 10.992-10.993a3.175 3.175 0 0 0-.001-4.49m31.262 30.963a3.17 3.17 0 0 0 4.49 0l13.236-13.236a3.176 3.176 0 0 0 0-4.49L103.14 29.437a3.175 3.175 0 1 0-4.49 4.49l10.991 10.993-10.99 10.991a3.173 3.173 0 0 0-.002 4.49m-26.764 6.782a3.176 3.176 0 0 0 4.261-1.42l19.052-38.102a3.173 3.173 0 0 0-1.421-4.26 3.18 3.18 0 0 0-4.261 1.42l-19.05 38.102a3.173 3.173 0 0 0 1.42 4.26"></path></svg></svg>